<svg width="1201" height="218" viewBox="0 0 1201 218" fill="none" xmlns="http://www.w3.org/2000/svg">
<path d="M108.996 0.532562C168.912 0.532562 217.491 49.1054 217.491 109.03C217.491 168.947 168.912 217.524 108.996 217.524C49.072 217.524 0.5 168.947 0.5 109.03C0.5 49.1054 49.072 0.532562 108.996 0.532562ZM941.887 61.4968C951.021 61.4968 958.253 63.9147 963.581 68.7505C968.909 73.5863 971.932 80.3922 972.648 89.1683H955.723C955.454 84.6907 954.156 81.4221 951.827 79.3624C949.499 77.3027 946.096 76.2728 941.618 76.2728C937.051 76.2728 933.604 77.3251 931.275 79.4295C928.947 81.534 927.783 84.4221 927.783 88.0937C927.783 91.3176 928.813 93.8698 930.872 95.7504C932.932 97.631 936.156 98.9743 940.544 99.7802L950.35 101.526C966.29 104.392 974.26 113.079 974.26 127.586C974.26 136.9 971.283 144.019 965.327 148.944C959.372 153.87 951.335 156.332 941.215 156.332C931.275 156.332 923.529 153.847 917.977 148.877C912.425 143.907 909.335 136.72 908.708 127.317H925.365C925.992 132.422 927.626 136.026 930.268 138.131C932.909 140.235 936.827 141.288 942.021 141.288C951.962 141.288 956.932 137.213 956.932 129.064C956.932 125.392 955.947 122.594 953.977 120.668C952.006 118.743 948.872 117.422 944.574 116.706L935.842 115.228C919.096 112.452 910.723 103.855 910.723 89.437C910.723 80.84 913.566 74.034 919.253 69.0191C924.939 64.0042 932.484 61.4968 941.887 61.4968ZM1055.01 61.4968C1064.14 61.4968 1071.37 63.9147 1076.7 68.7505C1082.03 73.5863 1085.05 80.3922 1085.77 89.1683H1068.84C1068.57 84.6907 1067.28 81.4221 1064.95 79.3624C1062.62 77.3027 1059.22 76.2728 1054.74 76.2728C1050.17 76.2728 1046.72 77.3251 1044.4 79.4295C1042.07 81.534 1040.9 84.4221 1040.9 88.0937C1040.9 91.3176 1041.93 93.8698 1043.99 95.7504C1046.05 97.631 1049.28 98.9743 1053.66 99.7802L1063.47 101.526C1079.41 104.392 1087.38 113.079 1087.38 127.586C1087.38 136.9 1084.4 144.019 1078.45 148.944C1072.49 153.87 1064.45 156.332 1054.34 156.332C1044.4 156.332 1036.65 153.847 1031.1 148.877C1025.54 143.907 1022.45 136.72 1021.83 127.317H1038.48C1039.11 132.422 1040.75 136.026 1043.39 138.131C1046.03 140.235 1049.95 141.288 1055.14 141.288C1065.08 141.288 1070.05 137.213 1070.05 129.064C1070.05 125.392 1069.07 122.594 1067.1 120.668C1065.13 118.743 1061.99 117.422 1057.69 116.706L1048.96 115.228C1032.22 112.452 1023.84 103.855 1023.84 89.437C1023.84 80.84 1026.69 74.034 1032.37 69.0191C1038.06 64.0042 1045.6 61.4968 1055.01 61.4968ZM1168.13 61.4968C1177.26 61.4968 1184.49 63.9147 1189.82 68.7505C1195.15 73.5863 1198.17 80.3922 1198.89 89.1683H1181.96C1181.69 84.6907 1180.4 81.4221 1178.07 79.3624C1175.74 77.3027 1172.34 76.2728 1167.86 76.2728C1163.29 76.2728 1159.84 77.3251 1157.52 79.4295C1155.19 81.534 1154.02 84.4221 1154.02 88.0937C1154.02 91.3176 1155.05 93.8698 1157.11 95.7504C1159.17 97.631 1162.4 98.9743 1166.78 99.7802L1176.59 101.526C1192.53 104.392 1200.5 113.079 1200.5 127.586C1200.5 136.9 1197.52 144.019 1191.57 148.944C1185.61 153.87 1177.57 156.332 1167.46 156.332C1157.51 156.332 1149.77 153.847 1144.22 148.877C1138.66 143.907 1135.57 136.72 1134.95 127.317H1151.6C1152.23 132.422 1153.87 136.026 1156.51 138.131C1159.15 140.235 1163.07 141.288 1168.26 141.288C1178.2 141.288 1183.17 137.213 1183.17 129.064C1183.17 125.392 1182.19 122.594 1180.22 120.668C1178.25 118.743 1175.11 117.422 1170.81 116.706L1162.08 115.228C1145.34 112.452 1136.96 103.855 1136.96 89.437C1136.96 80.84 1139.81 74.034 1145.49 69.0191C1151.18 64.0042 1158.72 61.4968 1168.13 61.4968ZM183.627 94.5603L132.485 145.711C146.609 159.832 169.499 159.832 183.627 145.711C197.752 131.587 197.752 108.685 183.627 94.5603ZM126.455 94.5639L75.3081 145.711C89.4361 159.832 112.327 159.832 126.451 145.711C140.571 131.587 140.571 108.685 126.455 94.5639ZM69.2706 94.5639L18.1315 145.711C32.2485 159.832 55.1536 159.832 69.2706 145.711C83.3949 131.59 83.3949 108.688 69.2706 94.5639ZM397.914 62.8401V78.1534H356.676V101.124H391.87V116.437H356.676V140.213H397.914V155.526H339.079V62.8401H397.914ZM467.646 62.8401L501.766 120.87V62.8401H519.363V155.526H501.766L467.646 97.631V155.526H450.049V62.8401H467.646ZM607.363 62.8401C617.662 62.8401 625.788 65.7057 631.744 71.437C637.699 77.1684 640.676 86.5713 640.676 99.6459V118.586C640.676 131.661 637.632 141.086 631.542 146.862C625.453 152.638 617.214 155.526 606.826 155.526H574.721V62.8401H607.363ZM711.08 62.8401V140.213H751.647V155.526H693.483V62.8401H711.08ZM861.14 62.8401V78.1534H819.901V101.124H855.095V116.437H819.901V140.213H861.14V155.526H802.305V62.8401H861.14ZM607.229 78.1534H592.318V140.213H607.229C612.512 140.213 616.475 138.467 619.117 134.974C621.759 131.482 623.08 125.974 623.08 118.452V100.586C623.08 92.7056 621.781 86.9967 619.184 83.4594C616.587 79.9221 612.602 78.1534 607.229 78.1534ZM85.5029 72.3415C71.3822 58.2243 48.4844 58.2243 34.3565 72.3415C20.2322 86.466 20.2358 109.368 34.3601 123.489L85.5029 72.3415ZM142.679 72.3452C128.559 58.2243 105.661 58.2243 91.5367 72.3452C77.4124 86.4697 77.4124 109.368 91.5367 123.492L142.679 72.3452ZM199.86 72.3415C185.735 58.2206 162.841 58.2243 148.71 72.3415C134.589 86.466 134.593 109.368 148.71 123.489L199.86 72.3415Z" fill="white"/>
</svg>
