<?xml version="1.0" encoding="UTF-8"?>
<svg width="113px" height="114px" viewBox="0 0 113 114" version="1.1" xmlns="http://www.w3.org/2000/svg" xmlns:xlink="http://www.w3.org/1999/xlink">
    <!-- Generator: Sketch 53.2 (72643) - https://sketchapp.com -->
    <title>viewrifff logo</title>
    <desc>Created with Sketch.</desc>
    <defs>
        <filter x="-10.5%" y="-10.5%" width="121.1%" height="121.1%" filterUnits="objectBoundingBox" id="filter-1">
            <feOffset dx="0" dy="2" in="SourceAlpha" result="shadowOffsetOuter1"></feOffset>
            <feGaussianBlur stdDeviation="2" in="shadowOffsetOuter1" result="shadowBlurOuter1"></feGaussianBlur>
            <feColorMatrix values="0 0 0 0 0   0 0 0 0 0   0 0 0 0 0  0 0 0 0.5 0" type="matrix" in="shadowBlurOuter1" result="shadowMatrixOuter1"></feColorMatrix>
            <feMerge>
                <feMergeNode in="shadowMatrixOuter1"></feMergeNode>
                <feMergeNode in="SourceGraphic"></feMergeNode>
            </feMerge>
        </filter>
        <linearGradient x1="-19.9743669%" y1="8.87256233%" x2="84.1504206%" y2="127.316543%" id="linearGradient-2">
            <stop stop-color="#606060" offset="0%"></stop>
            <stop stop-color="#2B2B2B" offset="28.1302787%"></stop>
            <stop stop-color="#A6A6A6" offset="47.590266%"></stop>
            <stop stop-color="#686868" offset="57.8411707%"></stop>
            <stop stop-color="#4D4D4D" offset="81.9705448%"></stop>
            <stop stop-color="#393939" offset="100%"></stop>
        </linearGradient>
        <linearGradient x1="50%" y1="0%" x2="120.001516%" y2="68.2519287%" id="linearGradient-3">
            <stop stop-color="#00FFE1" offset="0%"></stop>
            <stop stop-color="#158376" offset="46.3101774%"></stop>
            <stop stop-color="#101B1A" offset="76.2959248%"></stop>
            <stop stop-color="#000000" offset="100%"></stop>
        </linearGradient>
        <path d="M60.4971126,48.9552515 L85.557684,58.2279278 L83.9083998,62.5 L55.8708609,52.1258144 L55.8949034,52.0635381 L55.8949034,48.5211279 L55.8949034,40.7662434 C49.3650283,39.6769746 44.3893805,34.0302549 44.3893805,27.2280263 C44.3893805,19.6462467 50.5708182,13.5 58.196008,13.5 C65.8211978,13.5 72.0026355,19.6462467 72.0026355,27.2280263 C72.0026355,31.0370804 70.4424313,34.4838038 67.9227872,36.9708523 L91.8053097,45.807638 L90.1560255,50.0797102 L63.0948822,40.0668012 C62.2643115,40.3802944 61.395419,40.6163941 60.4971126,40.7662434 L60.4971126,48.5211279 L60.4971126,48.9552515 Z M58.196008,18.0760088 C53.1125482,18.0760088 48.9915897,22.1735066 48.9915897,27.2280263 C48.9915897,32.2825461 53.1125482,36.3800439 58.196008,36.3800439 C63.2794679,36.3800439 67.4004264,32.2825461 67.4004264,27.2280263 C67.4004264,22.1735066 63.2794679,18.0760088 58.196008,18.0760088 Z" id="path-4"></path>
        <filter x="-8.4%" y="-4.1%" width="117.5%" height="116.9%" filterUnits="objectBoundingBox" id="filter-5">
            <feMorphology radius="0.5" operator="dilate" in="SourceAlpha" result="shadowSpreadOuter1"></feMorphology>
            <feOffset dx="0" dy="2" in="shadowSpreadOuter1" result="shadowOffsetOuter1"></feOffset>
            <feGaussianBlur stdDeviation="0.5" in="shadowOffsetOuter1" result="shadowBlurOuter1"></feGaussianBlur>
            <feColorMatrix values="0 0 0 0 0.170318161   0 0 0 0 0.170318161   0 0 0 0 0.170318161  0 0 0 0.504753059 0" type="matrix" in="shadowBlurOuter1"></feColorMatrix>
        </filter>
        <linearGradient x1="50%" y1="0%" x2="75.7246727%" y2="92.6605508%" id="linearGradient-6">
            <stop stop-color="#58A0FF" offset="0%"></stop>
            <stop stop-color="#176DFF" offset="33.0906091%"></stop>
            <stop stop-color="#1D479B" offset="59.6214319%"></stop>
            <stop stop-color="#0F3FBA" offset="86.7134713%"></stop>
            <stop stop-color="#000000" offset="100%"></stop>
        </linearGradient>
        <path d="M64.4293807,67.0114854 L40.0897483,58.0917254 C39.2503678,58.4055127 38.3722592,58.6418339 37.4644246,58.7918238 L37.4644246,66.5539837 L37.4644246,66.9885146 L62.790809,76.2698902 L61.1240311,80.5459703 L32.7891031,70.162052 L32.8134006,70.0997172 L32.8134006,66.5539837 L32.8134006,58.7918238 C26.2142643,57.7015331 21.1858407,52.0495158 21.1858407,45.2409056 C21.1858407,37.652013 27.4328438,31.5 35.1389126,31.5 C42.8449815,31.5 49.0919846,37.652013 49.0919846,45.2409056 C49.0919846,49.0535332 47.5152315,52.5034901 44.968862,54.9928719 L69.1047022,63.837948 L69.0804047,63.9002828 L69.0804047,75.2081762 C69.0804047,75.7616566 64.4293807,76.0612358 64.4293807,75.2081762 L64.4293807,67.0114854 Z M35.1389126,36.0803019 C30.0015334,36.0803019 25.8368647,40.1816438 25.8368647,45.2409056 C25.8368647,50.3001673 30.0015334,54.4015093 35.1389126,54.4015093 C40.2762919,54.4015093 44.4409606,50.3001673 44.4409606,45.2409056 C44.4409606,40.1816438 40.2762919,36.0803019 35.1389126,36.0803019 Z" id="path-7"></path>
        <filter x="-8.3%" y="-4.1%" width="116.7%" height="116.9%" filterUnits="objectBoundingBox" id="filter-8">
            <feMorphology radius="0.5" operator="dilate" in="SourceAlpha" result="shadowSpreadOuter1"></feMorphology>
            <feOffset dx="0" dy="2" in="shadowSpreadOuter1" result="shadowOffsetOuter1"></feOffset>
            <feGaussianBlur stdDeviation="0.5" in="shadowOffsetOuter1" result="shadowBlurOuter1"></feGaussianBlur>
            <feColorMatrix values="0 0 0 0 0.170318161   0 0 0 0 0.170318161   0 0 0 0 0.170318161  0 0 0 0.504753059 0" type="matrix" in="shadowBlurOuter1"></feColorMatrix>
        </filter>
        <linearGradient x1="50%" y1="0%" x2="50%" y2="98.0943834%" id="linearGradient-9">
            <stop stop-color="#B600D1" offset="0%"></stop>
            <stop stop-color="#251B1B" offset="100%"></stop>
        </linearGradient>
        <path d="M64.024894,73.2905293 C73.7414464,73.2905293 78.0163061,80.0328374 78.0163061,86.8414476 C78.0163061,94.4303402 71.769303,100.582353 64.0632342,100.582353 C56.3571653,100.582353 50.1101622,94.4303402 50.1101622,86.8414476 C50.1101622,80.0328374 54.3083415,73.2905293 64.024894,73.2905293 Z M64.0632342,96.0020513 C69.2006134,96.0020513 73.3652821,91.9007093 73.3652821,86.8414476 C73.3652821,81.7821858 69.2006134,77.6808438 64.0632342,77.6808438 C58.9258549,77.6808438 54.7611862,81.7821858 54.7611862,86.8414476 C54.7611862,91.9007093 58.9258549,96.0020513 64.0632342,96.0020513 Z" id="path-10"></path>
        <filter x="-14.3%" y="-7.3%" width="128.7%" height="129.3%" filterUnits="objectBoundingBox" id="filter-11">
            <feMorphology radius="0.5" operator="dilate" in="SourceAlpha" result="shadowSpreadOuter1"></feMorphology>
            <feOffset dx="0" dy="2" in="shadowSpreadOuter1" result="shadowOffsetOuter1"></feOffset>
            <feGaussianBlur stdDeviation="0.5" in="shadowOffsetOuter1" result="shadowBlurOuter1"></feGaussianBlur>
            <feColorMatrix values="0 0 0 0 0.170318161   0 0 0 0 0.170318161   0 0 0 0 0.170318161  0 0 0 0.504753059 0" type="matrix" in="shadowBlurOuter1"></feColorMatrix>
        </filter>
    </defs>
    <g id="viewrifff-logo" stroke="none" stroke-width="1" fill="none" fill-rule="evenodd">
        <g id="Group" filter="url(#filter-1)">
            <rect id="Rectangle-Copy" fill="#000000" x="0" y="0" width="114" height="114" rx="23"></rect>
            <path d="M19,8 C12.9248678,8 8,12.9248678 8,19 L8,95 C8,101.075132 12.9248678,106 19,106 L95,106 C101.075132,106 106,101.075132 106,95 L106,19 C106,12.9248678 101.075132,8 95,8 L19,8 Z M19,0 L95,0 C105.49341,-1.92760819e-15 114,8.50658975 114,19 L114,95 C114,105.49341 105.49341,114 95,114 L19,114 C8.50658975,114 -9.37306891e-15,105.49341 -1.0658141e-14,95 L0,19 C-1.28507213e-15,8.50658975 8.50658975,-8.73053285e-15 19,0 Z" id="Rectangle" fill="url(#linearGradient-2)" fill-rule="nonzero"></path>
            <g id="Combined-Shape-Copy" fill-rule="nonzero" transform="translate(68.097345, 38.000000) scale(-1, 1) translate(-68.097345, -38.000000) ">
                <use fill="black" fill-opacity="1" filter="url(#filter-5)" xlink:href="#path-4"></use>
                <use fill="url(#linearGradient-3)" xlink:href="#path-4"></use>
            </g>
            <g id="Combined-Shape" fill-rule="nonzero">
                <use fill="black" fill-opacity="1" filter="url(#filter-8)" xlink:href="#path-7"></use>
                <use fill="url(#linearGradient-6)" xlink:href="#path-7"></use>
            </g>
            <g id="Combined-Shape" fill-rule="nonzero">
                <use fill="black" fill-opacity="1" filter="url(#filter-11)" xlink:href="#path-10"></use>
                <use fill="url(#linearGradient-9)" xlink:href="#path-10"></use>
            </g>
        </g>
    </g>
</svg>